<mxfile host="app.diagrams.net" modified="2023-08-08T11:41:05.411Z" agent="Mozilla/5.0 (X11; Linux x86_64) AppleWebKit/537.36 (KHTML, like Gecko) Chrome/114.0.0.0 Safari/537.36 Edg/114.0.1823.67" etag="WDDfEvp7Ll5Nu_HSSoi-" version="21.6.6" type="github">
  <diagram id="C5RBs43oDa-KdzZeNtuy" name="Page-1">
    <mxGraphModel dx="1346" dy="775" grid="1" gridSize="10" guides="1" tooltips="1" connect="1" arrows="1" fold="1" page="1" pageScale="1" pageWidth="827" pageHeight="1169" math="0" shadow="0">
      <root>
        <mxCell id="WIyWlLk6GJQsqaUBKTNV-0" />
        <mxCell id="WIyWlLk6GJQsqaUBKTNV-1" parent="WIyWlLk6GJQsqaUBKTNV-0" />
        <mxCell id="WIyWlLk6GJQsqaUBKTNV-3" value="&lt;font style=&quot;font-size: 18px;&quot;&gt;CNBin/CNFatbin/Host(CNFatbin inside)&lt;/font&gt;" style="rounded=1;whiteSpace=wrap;html=1;fontSize=12;glass=0;strokeWidth=1;shadow=0;" parent="WIyWlLk6GJQsqaUBKTNV-1" vertex="1">
          <mxGeometry x="90" y="150" width="330" height="40" as="geometry" />
        </mxCell>
        <mxCell id="GwNDqdSelnFKvhHl8uKX-5" style="edgeStyle=orthogonalEdgeStyle;rounded=0;orthogonalLoop=1;jettySize=auto;html=1;exitX=0.5;exitY=1;exitDx=0;exitDy=0;entryX=0.5;entryY=0;entryDx=0;entryDy=0;" edge="1" parent="WIyWlLk6GJQsqaUBKTNV-1" source="GwNDqdSelnFKvhHl8uKX-0" target="GwNDqdSelnFKvhHl8uKX-1">
          <mxGeometry relative="1" as="geometry" />
        </mxCell>
        <mxCell id="GwNDqdSelnFKvhHl8uKX-6" value="&lt;font style=&quot;font-size: 14px;&quot;&gt;inst&lt;br&gt;count&lt;/font&gt;" style="edgeLabel;html=1;align=center;verticalAlign=middle;resizable=0;points=[];" vertex="1" connectable="0" parent="GwNDqdSelnFKvhHl8uKX-5">
          <mxGeometry x="-0.2" y="2" relative="1" as="geometry">
            <mxPoint x="23" as="offset" />
          </mxGeometry>
        </mxCell>
        <mxCell id="GwNDqdSelnFKvhHl8uKX-0" value="&lt;font style=&quot;font-size: 18px;&quot;&gt;反汇编&lt;/font&gt;" style="rounded=1;whiteSpace=wrap;html=1;" vertex="1" parent="WIyWlLk6GJQsqaUBKTNV-1">
          <mxGeometry x="200" y="290" width="90" height="40" as="geometry" />
        </mxCell>
        <mxCell id="GwNDqdSelnFKvhHl8uKX-8" style="edgeStyle=orthogonalEdgeStyle;rounded=0;orthogonalLoop=1;jettySize=auto;html=1;exitX=0.5;exitY=1;exitDx=0;exitDy=0;entryX=0.5;entryY=0;entryDx=0;entryDy=0;" edge="1" parent="WIyWlLk6GJQsqaUBKTNV-1" source="GwNDqdSelnFKvhHl8uKX-1" target="GwNDqdSelnFKvhHl8uKX-2">
          <mxGeometry relative="1" as="geometry" />
        </mxCell>
        <mxCell id="GwNDqdSelnFKvhHl8uKX-9" value="&lt;span style=&quot;font-size: 14px;&quot;&gt;&lt;br&gt;&lt;/span&gt;" style="edgeLabel;html=1;align=center;verticalAlign=middle;resizable=0;points=[];" vertex="1" connectable="0" parent="GwNDqdSelnFKvhHl8uKX-8">
          <mxGeometry x="0.04" y="2" relative="1" as="geometry">
            <mxPoint as="offset" />
          </mxGeometry>
        </mxCell>
        <mxCell id="GwNDqdSelnFKvhHl8uKX-1" value="&lt;font style=&quot;font-size: 18px;&quot;&gt;找到所有的跳转指令、BB块开始指令&lt;/font&gt;" style="rounded=1;whiteSpace=wrap;html=1;" vertex="1" parent="WIyWlLk6GJQsqaUBKTNV-1">
          <mxGeometry x="90" y="380" width="310" height="50" as="geometry" />
        </mxCell>
        <mxCell id="GwNDqdSelnFKvhHl8uKX-2" value="&lt;font style=&quot;font-size: 18px;&quot;&gt;构建 BB 块&lt;/font&gt;" style="rounded=1;whiteSpace=wrap;html=1;" vertex="1" parent="WIyWlLk6GJQsqaUBKTNV-1">
          <mxGeometry x="190" y="480" width="110" height="40" as="geometry" />
        </mxCell>
        <mxCell id="GwNDqdSelnFKvhHl8uKX-4" style="edgeStyle=orthogonalEdgeStyle;rounded=0;orthogonalLoop=1;jettySize=auto;html=1;exitX=0.5;exitY=1;exitDx=0;exitDy=0;entryX=0.5;entryY=0;entryDx=0;entryDy=0;" edge="1" parent="WIyWlLk6GJQsqaUBKTNV-1" source="GwNDqdSelnFKvhHl8uKX-3" target="GwNDqdSelnFKvhHl8uKX-0">
          <mxGeometry relative="1" as="geometry" />
        </mxCell>
        <mxCell id="GwNDqdSelnFKvhHl8uKX-3" value="&lt;font style=&quot;font-size: 14px;&quot;&gt;遍历 text 段&lt;/font&gt;" style="rhombus;whiteSpace=wrap;html=1;" vertex="1" parent="WIyWlLk6GJQsqaUBKTNV-1">
          <mxGeometry x="172.5" y="210" width="145" height="60" as="geometry" />
        </mxCell>
        <mxCell id="GwNDqdSelnFKvhHl8uKX-7" value="inst：text 段经反汇编后得到的 cndisasminst_t *指针&lt;br&gt;count：text 段含有的指令个数" style="rounded=0;whiteSpace=wrap;html=1;align=left;" vertex="1" parent="WIyWlLk6GJQsqaUBKTNV-1">
          <mxGeometry x="470" y="220" width="320" height="180" as="geometry" />
        </mxCell>
      </root>
    </mxGraphModel>
  </diagram>
</mxfile>
